<?xml version="1.0" standalone="no"?>
<!DOCTYPE svg PUBLIC "-//W3C//DTD SVG 20010904//EN"
 "http://www.w3.org/TR/2001/REC-SVG-20010904/DTD/svg10.dtd">
<svg version="1.0" xmlns="http://www.w3.org/2000/svg"
 width="200.000000pt" height="200.000000pt" viewBox="0 0 200.000000 200.000000"
 preserveAspectRatio="xMidYMid meet">
<metadata>
Created by potrace 1.16, written by Peter Selinger 2001-2019
</metadata>
<g transform="translate(0.000000,200.000000) scale(0.100000,-0.100000)"
fill="#000000" stroke="none">
<path d="M0 1000 l0 -1000 1000 0 1000 0 0 1000 0 1000 -1000 0 -1000 0 0
-1000z m778 297 c95 -95 172 -178 172 -183 0 -23 -33 -54 -58 -54 -21 0 -52
25 -139 112 l-113 113 0 -362 c0 -315 -2 -364 -16 -377 -22 -23 -71 -20 -84 3
-6 13 -10 173 -10 452 0 573 -12 558 248 296z m686 151 c14 -19 16 -79 16
-448 0 -467 0 -470 -58 -470 -22 0 -60 32 -195 168 -92 93 -167 175 -167 183
0 25 30 59 53 59 15 0 59 -37 132 -110 61 -60 113 -110 118 -110 4 0 7 161 7
357 0 318 2 358 17 375 22 25 59 23 77 -4z"/>
</g>
</svg>
