<?xml version="1.0" standalone="no"?>
<!DOCTYPE svg PUBLIC "-//W3C//DTD SVG 20010904//EN"
 "http://www.w3.org/TR/2001/REC-SVG-20010904/DTD/svg10.dtd">
<svg version="1.0" xmlns="http://www.w3.org/2000/svg"
 width="284.000000pt" height="284.000000pt" viewBox="0 0 284.000000 284.000000"
 preserveAspectRatio="xMidYMid meet">
<metadata>
Created by potrace 1.16, written by Peter Selinger 2001-2019
</metadata>
<g transform="translate(0.000000,284.000000) scale(0.100000,-0.100000)"
fill="#000000" stroke="none">
<path d="M0 1420 l0 -1420 1420 0 1420 0 0 1420 0 1420 -1420 0 -1420 0 0
-1420z m2570 -641 c0 -6 -9 -13 -20 -16 -17 -5 -20 -14 -20 -59 0 -47 -2 -54
-20 -54 -18 0 -20 7 -20 55 0 48 -2 55 -20 55 -11 0 -20 7 -20 15 0 12 13 15
60 15 37 0 60 -4 60 -11z m69 -31 l19 -43 17 43 c12 28 23 42 36 42 17 0 19
-8 19 -71 0 -52 -3 -70 -12 -67 -7 3 -15 18 -18 34 l-6 29 -11 -32 c-16 -44
-30 -41 -53 10 l-19 42 0 -42 c-1 -31 -5 -43 -16 -43 -12 0 -15 14 -15 70 0
64 2 70 20 70 15 0 26 -12 39 -42z m-2217 -110 c122 -36 169 -222 86 -341 -63
-90 -239 -93 -313 -5 -68 81 -57 238 21 312 48 44 128 57 206 34z m418 -43 l0
-55 -33 0 c-18 0 -43 -7 -55 -16 -21 -14 -22 -22 -22 -150 l0 -134 -60 0 -60
0 0 200 0 200 55 0 c42 0 55 -3 55 -15 0 -12 6 -12 37 5 21 11 48 20 60 20 21
0 23 -5 23 -55z m292 43 c22 -6 50 -25 64 -41 23 -28 24 -33 24 -193 l0 -164
-48 0 c-26 0 -52 4 -58 10 -6 6 -27 4 -58 -5 -63 -19 -90 -19 -131 1 -35 16
-65 65 -65 104 0 12 8 38 17 57 19 41 84 76 176 94 44 9 57 16 57 30 0 42 -83
49 -132 10 -22 -19 -23 -18 -60 3 -21 11 -38 24 -38 28 0 11 62 54 95 66 41
14 110 14 157 0z m463 -3 c52 -25 59 -52 63 -232 l4 -163 -61 0 -61 0 0 148
c0 102 -4 152 -12 160 -16 16 -53 15 -88 -3 l-30 -16 0 -144 0 -145 -60 0 -60
0 0 194 0 194 31 6 c54 11 69 8 69 -14 0 -11 1 -20 3 -20 1 0 24 11 51 25 57
29 104 32 151 10z m337 5 c21 -6 44 -18 53 -26 13 -14 15 -13 15 5 0 19 6 21
51 21 l51 0 -4 -229 c-3 -215 -4 -231 -24 -258 -38 -51 -80 -68 -169 -68 -65
0 -87 4 -116 22 -32 20 -66 69 -56 80 2 2 26 6 53 9 39 5 53 3 63 -10 14 -17
86 -22 108 -8 14 9 33 56 33 83 0 20 0 20 -21 0 -42 -39 -138 -34 -186 11 -80
73 -85 233 -11 322 40 49 93 64 160 46z m498 -12 c54 -27 85 -79 95 -155 l7
-53 -136 0 c-75 0 -136 -4 -136 -9 0 -23 24 -73 40 -81 35 -19 89 -12 115 14
l25 25 40 -22 c22 -12 40 -25 40 -28 0 -18 -67 -68 -106 -79 -99 -28 -201 7
-240 83 -40 75 -24 226 29 275 58 54 153 67 227 30z"/>
<path d="M293 528 c-28 -30 -39 -95 -23 -143 24 -72 116 -83 151 -18 21 40 18
116 -7 150 -29 39 -90 44 -121 11z"/>
<path d="M1045 422 c-33 -11 -55 -26 -64 -44 -14 -24 -14 -28 3 -47 24 -26 37
-26 86 -1 38 19 40 23 40 65 0 25 -3 45 -7 45 -5 -1 -30 -9 -58 -18z"/>
<path d="M1866 548 c-56 -48 -42 -199 20 -214 62 -16 112 56 99 142 -5 39 -35
84 -55 84 -4 0 -15 3 -23 6 -8 3 -27 -5 -41 -18z"/>
<path d="M2290 550 c-38 -38 -27 -50 50 -50 56 0 70 3 70 15 0 25 -38 55 -70
55 -17 0 -39 -9 -50 -20z"/>
</g>
</svg>
