<svg width="150" height="33" viewBox="0 0 150 33" fill="none" xmlns="http://www.w3.org/2000/svg">
<g id="Menu">
<g id="Tellent_Logo">
<path id="Vector" d="M15.2737 23.0093C15.2737 24.0852 15.1087 24.8603 14.7768 25.3345C14.4449 25.8087 13.9321 26.0458 13.2385 26.0458C12.5449 26.0458 12.0798 25.8167 11.7479 25.3584C11.416 24.9002 11.251 24.2267 11.251 23.3401V14.0373H20.3338L21.3812 8.10383H11.2491V2.36957L3.86363 5.41004V8.10582H0C0 10.6581 1.60985 12.8279 3.86363 13.6648V23.4835C3.86363 25.3823 4.21939 26.9962 4.92892 28.3252C5.63844 29.6541 6.67192 30.6583 8.02936 31.3397C9.3868 32.0192 11.0742 32.3599 13.0954 32.3599C15.1167 32.3599 16.7007 31.9793 18.1376 31.2202C19.5726 30.4611 20.6855 29.3931 21.4746 28.0163C22.2636 26.6396 22.6591 25.0356 22.6591 23.1986V17.3647H15.2737V23.0093Z" fill="white"/>
<path id="Vector_2" d="M51.8824 25.1632C51.2524 28.7914 54.0388 32.1128 57.7137 32.1128H58.1112L63.5707 0.640121H56.1376L51.8824 25.1632Z" fill="white"/>
<path id="Vector_3" d="M64.098 25.1632C63.468 28.7914 66.2544 32.1128 69.9292 32.1128H70.3267L75.7863 0.640121H68.3532L64.098 25.1632Z" fill="white"/>
<path id="Vector_4" d="M92.2142 24.3383C92.0254 24.8762 91.7412 25.3265 91.3636 25.6912C90.984 26.0558 90.5428 26.3327 90.0379 26.522C89.5331 26.7113 88.9488 26.8069 88.287 26.8069C87.3708 26.8069 86.6056 26.6655 85.9895 26.3805C85.3734 26.0956 84.8606 25.6374 84.4512 25.0038C84.01 24.3702 83.7099 23.6429 83.5528 22.82C83.3938 21.9972 83.3163 21.0169 83.3163 19.8772C83.3163 19.1181 83.3402 18.4227 83.3879 17.7891C83.4356 17.1575 83.5449 16.5877 83.7198 16.0796C83.8927 15.5735 84.1213 15.1312 84.4055 14.7506C84.8467 14.1509 85.3754 13.6827 85.9915 13.3499C86.6076 13.0172 87.3251 12.8518 88.1459 12.8518C89.5669 12.8518 90.6322 13.2324 91.3417 13.9915C92.0353 14.7327 92.4189 15.8126 92.4945 17.2193H87.816C86.379 17.2193 85.1488 18.2514 84.8944 19.67L84.5188 21.776H99.5559V19.8294C99.5559 17.2352 99.1068 15.0057 98.2064 13.1367C97.3081 11.2698 96.0063 9.84722 94.3011 8.86494C92.5978 7.88466 90.5448 7.39452 88.1459 7.39452C86.7884 7.39452 85.5105 7.57782 84.3101 7.94045C83.1116 8.30506 82.0205 8.82709 81.0447 9.50651C80.0668 10.1879 79.246 11.0347 78.5822 12.0449C78.0774 12.7104 77.658 13.4535 77.3281 14.2764C76.9962 15.0993 76.7358 15.9939 76.547 16.9583C76.3582 17.9246 76.2628 18.9129 76.2628 19.925C76.2628 21.5389 76.4516 23.0033 76.8312 24.3144C77.2108 25.6274 77.7475 26.791 78.4411 27.8032C79.1347 28.7834 79.9794 29.6143 80.9731 30.2957C81.9668 30.9751 83.0878 31.4912 84.3359 31.8379C85.582 32.1865 86.9474 32.3599 88.4301 32.3599C90.4176 32.3599 92.1924 32.0192 93.7565 31.3397C95.3186 30.6603 96.6204 29.7199 97.6619 28.5164C98.7033 27.315 99.3492 25.9223 99.6036 24.3403V24.2925H92.2182V24.3403L92.2142 24.3383Z" fill="white"/>
<path id="Vector_5" d="M122.271 8.46247C121.041 7.75116 119.54 7.39452 117.774 7.39452C116.48 7.39452 115.335 7.64756 114.341 8.15364C113.347 8.65972 112.479 9.42681 111.738 10.4549C110.996 11.483 110.404 12.7741 109.963 14.3223H109.015L110.233 8.10383H103.382V31.6446H110.815V19.3512C110.815 18.2753 110.982 17.3428 111.312 16.5518C111.644 15.7608 112.133 15.1611 112.779 14.7486C113.425 14.3382 114.176 14.131 115.027 14.131C116.225 14.131 117.126 14.4797 117.726 15.175C118.324 15.8704 118.626 16.8845 118.626 18.2135V31.6446H125.916V16.6016C125.916 14.6092 125.616 12.9315 125.018 11.5707C124.418 10.2098 123.503 9.17377 122.271 8.46247Z" fill="white"/>
<path id="Vector_6" d="M142.612 17.3647V23.0093C142.612 24.0852 142.445 24.8603 142.116 25.3345C141.784 25.8087 141.271 26.0458 140.577 26.0458C139.884 26.0458 139.419 25.8167 139.087 25.3584C138.755 24.9002 138.59 24.2267 138.59 23.3421V14.0393H147.672L148.72 8.10582H138.59V2.36957L131.204 5.41004V8.10582H127.341C127.341 10.6581 128.951 12.8259 131.204 13.6648V23.4835C131.204 25.3823 131.56 26.9962 132.27 28.3252C132.979 29.6541 134.013 30.6583 135.37 31.3397C136.728 32.0192 138.417 32.3599 140.436 32.3599C142.455 32.3599 144.041 31.9793 145.478 31.2202C146.913 30.4611 148.026 29.3931 148.815 28.0163C149.604 26.6396 150 25.0337 150 23.1986V17.3647H142.614H142.612Z" fill="white"/>
<path id="Vector_7" d="M41.6074 24.3383C41.4186 24.8762 41.1344 25.3265 40.7567 25.6912C40.3771 26.0558 39.9359 26.3327 39.4311 26.522C38.9263 26.7113 38.342 26.8069 37.6801 26.8069C36.7639 26.8069 35.9987 26.6655 35.3826 26.3805C34.7665 26.0956 34.2537 25.6374 33.8443 25.0038C33.4031 24.3702 33.103 23.6429 32.946 22.82C32.787 21.9972 32.7095 21.0169 32.7095 19.8772C32.7095 19.1181 32.7333 18.4227 32.781 17.7891C32.8287 17.1575 32.938 16.5877 33.1129 16.0796C33.2859 15.5735 33.5144 15.1312 33.7986 14.7506C34.2398 14.1509 34.7685 13.6827 35.3846 13.3499C36.0007 13.0172 36.7182 12.8518 37.539 12.8518C38.9601 12.8518 40.0253 13.2324 40.7349 13.9915C41.4285 14.7327 41.8121 15.8126 41.8876 17.2193H37.2091C35.7722 17.2193 34.5419 18.2514 34.2875 19.67L33.9119 21.776H48.9491V19.8294C48.9491 17.2352 48.4999 15.0057 47.5996 13.1367C46.7012 11.2698 45.3995 9.84722 43.6942 8.86494C41.991 7.88466 39.9379 7.39452 37.541 7.39452C36.1836 7.39452 34.9056 7.57782 33.7052 7.94045C32.5068 8.30506 31.4156 8.82709 30.4398 9.50651C29.462 10.1879 28.6411 11.0347 27.9773 12.0449C27.4725 12.7104 27.0532 13.4535 26.7232 14.2764C26.3913 15.0993 26.131 15.9939 25.9422 16.9583C25.7534 17.9246 25.658 18.9129 25.658 19.925C25.658 21.5389 25.8468 23.0033 26.2264 24.3144C26.606 25.6274 27.1426 26.791 27.8362 27.8032C28.5298 28.7834 29.3745 29.6143 30.3683 30.2957C31.362 30.9751 32.4829 31.4912 33.731 31.8379C34.9772 32.1865 36.3426 32.3599 37.8252 32.3599C39.8127 32.3599 41.5875 32.0192 43.1516 31.3397C44.7138 30.6603 46.0156 29.7199 47.057 28.5164C48.0984 27.315 48.7444 25.9223 48.9988 24.3403V24.2925H41.6133V24.3403L41.6074 24.3383Z" fill="white"/>
</g>
</g>
</svg>
