<svg width="96" height="20" viewBox="0 0 96 20" fill="none" xmlns="http://www.w3.org/2000/svg">
<path fill-rule="evenodd" clip-rule="evenodd" d="M72.8186 2.44007C72.8186 1.41843 71.9719 0.597778 70.935 0.597778C69.8982 0.597778 69.0515 1.41843 69.0515 2.44007C69.0515 3.4617 69.8982 4.28236 70.935 4.28236C71.9719 4.28236 72.8186 3.44495 72.8186 2.44007ZM54.7261 19.4561C53.5164 19.5231 52.2031 19.5064 50.7861 19.4059C49.3692 19.3054 48.6607 18.4345 48.6607 16.7932V1.11697H50.6479C51.1145 1.11697 51.5465 1.3012 51.9094 1.65291C52.2723 2.00462 52.4623 2.44007 52.4623 2.92576V5.32074H54.7261V6.0744C54.7261 6.61034 54.536 7.04579 54.1731 7.38076C53.8102 7.71572 53.3609 7.8832 52.8425 7.8832H52.4623V15.7715C52.4623 16.3745 52.8252 16.6759 53.5683 16.6759H54.7261V19.4561ZM69.1379 5.2705C69.342 5.2705 69.5603 5.26046 69.7856 5.25009C70.724 5.20692 71.7835 5.15818 72.4384 5.80644C72.8013 6.15815 72.9914 6.5936 72.9914 7.0793V19.4561H69.1379V5.2705ZM57.6119 12.5559V19.4394V19.4561H61.4654V12.154C61.4654 11.0821 61.7246 10.3117 62.243 9.80923C62.7614 9.30679 63.5563 9.05557 64.6104 9.05557H65.8719V5.2705H65.5954H65.3189C64.3339 5.2705 63.3662 5.38774 62.4331 5.63896C61.4827 5.89018 60.6705 6.27539 59.9793 6.81132C59.2535 7.38076 58.6833 8.13442 58.2513 9.07232C57.8192 10.0102 57.6119 11.1658 57.6119 12.5559ZM41.1091 12.1707C40.5907 12.4219 39.8822 12.6397 38.9664 12.8574C38.1196 13.0416 37.7049 13.1253 37.7049 13.1253C37.0483 13.2928 36.5644 13.5273 36.2706 13.812C36.0114 14.1972 35.8905 14.5824 35.8905 14.9676C35.8905 15.4868 36.0633 15.9223 36.3916 16.2405C36.7199 16.5252 37.2038 16.6592 37.8259 16.6592C38.8454 16.6592 39.6576 16.3745 40.2451 15.805C40.8327 15.2356 41.1264 14.4652 41.1264 13.4771V12.1707H41.1091ZM41.9732 18.669C41.1955 19.0542 40.3834 19.2886 39.5194 19.3891C38.6553 19.4729 37.895 19.5231 37.2383 19.5231C35.925 19.5231 34.7673 19.1714 33.765 18.4847C32.78 17.7981 32.2789 16.6592 32.2789 15.0681C32.2789 13.5943 32.7282 12.5392 33.6268 11.9027C34.5253 11.2663 35.6658 10.8476 37.0655 10.6299C37.2556 10.6299 37.463 10.5964 37.7222 10.5461C37.9814 10.4959 38.2752 10.4457 38.6035 10.4122C40.2106 10.1944 41.0227 9.74223 41.0227 9.03881C41.0227 8.50287 40.729 8.16791 40.176 8.01718C39.6058 7.86645 39.0873 7.78271 38.6035 7.78271C38.0851 7.78271 37.6358 7.8497 37.2211 8.00043C36.8236 8.13442 36.5299 8.40239 36.3398 8.78759H32.6591C32.7973 7.69897 33.3157 6.79457 34.197 6.09115C35.182 5.28724 36.599 4.86854 38.4307 4.86854C40.4871 4.86854 42.025 5.2035 43.0618 5.87343C44.1159 6.57685 44.6516 7.56498 44.6516 8.83784V13.6445C44.6516 15.0514 44.3924 16.1567 43.8567 16.9439C43.3383 17.7478 42.7162 18.3173 41.9732 18.669ZM16.892 19.3972H16.8919H16.8918C16.7087 19.3931 16.5313 19.3891 16.3637 19.3891H16.381V11.0653C16.381 8.58661 17.0549 6.92855 18.42 6.10789C19.6469 5.35423 21.2195 4.85179 22.6883 4.86854C24.209 4.80154 25.8679 5.32073 27.1466 6.09115C28.5118 6.9118 29.1857 8.55311 29.1857 11.0486V19.3724C29.0181 19.3724 28.8406 19.3763 28.6576 19.3804H28.6574H28.6573C27.1983 19.4129 25.384 19.4534 25.384 17.5636V10.3117C25.384 8.85458 24.3299 7.89994 22.8784 7.86644V7.88319C21.3059 7.8162 20.1653 8.78759 20.1653 10.3284V17.5803C20.1653 19.4701 18.3511 19.4297 16.892 19.3972ZM13.0113 5.08627C12.8436 5.08627 12.6661 5.08231 12.4829 5.07823C11.0239 5.04571 9.20961 5.00526 9.20961 6.89506V14.147C9.20961 15.6878 8.0691 16.6592 6.49659 16.5922V16.609C5.04504 16.5755 4.00822 15.6208 4.00822 14.147V6.89506C4.00822 5.00526 2.19397 5.04571 0.734898 5.07823C0.551753 5.08231 0.374205 5.08627 0.206543 5.08627V13.4101C0.206543 15.9055 0.880477 17.5468 2.24562 18.3675C3.52437 19.1379 5.18328 19.6571 6.70395 19.5901C8.17278 19.6069 9.7453 19.1044 10.9722 18.3508C12.3373 17.5301 13.0113 15.872 13.0113 13.3933V5.08627Z" fill="white"/>
<path d="M81.7525 19.3389H75.9636C76.6894 18.3675 85.5888 6.97881 85.5542 6.97881L89.6324 1.58593C90.1162 0.782019 90.8939 0.413561 91.827 0.413561H95.9224C91.1358 6.74434 86.2627 12.8071 81.7525 19.3389Z" fill="#2A2E33" stroke="#55AF1E" stroke-width="0.216" stroke-miterlimit="2.4142"/>
<path d="M75.6699 5.17001L81.0268 5.11976L83.3597 7.86645L80.4739 11.2161L75.6699 5.17001Z" fill="#2A2E33" stroke="#55AF1E" stroke-width="0.216" stroke-miterlimit="2.4142"/>
<path d="M81.7525 19.3389H75.9636C76.6894 18.3675 85.5888 6.97878 85.5542 6.97878L89.6324 1.5859C90.1162 0.781986 90.8939 0.413528 91.827 0.413528H95.9225C91.1358 6.74431 86.2627 12.8071 81.7525 19.3389Z" fill="#55AF1E"/>
<path d="M75.6699 5.17001L81.0268 5.11976L83.3597 7.86645L80.4739 11.2161L75.6699 5.17001Z" fill="#55AF1E"/>
<path d="M87.7092 13.5256L84.896 16.9456L86.7485 19.364H92.3093L87.7092 13.5256Z" fill="#33740A"/>
</svg>
